  0
SECTION
  2
HEADER
  9
$ACADVER
  1
AC1009
  9
$INSBASE
 10
0.0
 20
0.0
 30
0.0
  9
$EXTMIN
 10
-10.000003814697269
 20
-21.799999952316281
 30
0.0
  9
$EXTMAX
 10
82.79705810546875
 20
40.99970626831054
 30
0.0
  9
$LIMMIN
 10
0.0
 20
0.0
  9
$LIMMAX
 10
12.0
 20
9.0
  9
$ORTHOMODE
 70
     0
  9
$REGENMODE
 70
     1
  9
$FILLMODE
 70
     1
  9
$QTEXTMODE
 70
     0
  9
$MIRRTEXT
 70
     0
  9
$DRAGMODE
 70
     2
  9
$LTSCALE
 40
1.0
  9
$OSMODE
 70
    37
  9
$ATTMODE
 70
     1
  9
$TEXTSIZE
 40
0.2
  9
$TRACEWID
 40
0.05
  9
$TEXTSTYLE
  7
STANDARD
  9
$CLAYER
  8
0
  9
$CELTYPE
  6
CONTINUOUS
  9
$CECOLOR
 62
   256
  9
$DIMSCALE
 40
1.0
  9
$DIMASZ
 40
0.18
  9
$DIMEXO
 40
0.0625
  9
$DIMDLI
 40
0.38
  9
$DIMRND
 40
0.0
  9
$DIMDLE
 40
0.0
  9
$DIMEXE
 40
0.18
  9
$DIMTP
 40
0.0
  9
$DIMTM
 40
0.0
  9
$DIMTXT
 40
0.18
  9
$DIMCEN
 40
0.09
  9
$DIMTSZ
 40
0.0
  9
$DIMTOL
 70
     0
  9
$DIMLIM
 70
     0
  9
$DIMTIH
 70
     1
  9
$DIMTOH
 70
     1
  9
$DIMSE1
 70
     0
  9
$DIMSE2
 70
     0
  9
$DIMTAD
 70
     0
  9
$DIMZIN
 70
     0
  9
$DIMBLK
  1

  9
$DIMASO
 70
     1
  9
$DIMSHO
 70
     1
  9
$DIMPOST
  1

  9
$DIMAPOST
  1

  9
$DIMALT
 70
     0
  9
$DIMALTD
 70
     2
  9
$DIMALTF
 40
25.399999999999999
  9
$DIMLFAC
 40
1.0
  9
$DIMTOFL
 70
     0
  9
$DIMTVP
 40
0.0
  9
$DIMTIX
 70
     0
  9
$DIMSOXD
 70
     0
  9
$DIMSAH
 70
     0
  9
$DIMBLK1
  1

  9
$DIMBLK2
  1

  9
$DIMSTYLE
  2
STANDARD
  9
$DIMCLRD
 70
     0
  9
$DIMCLRE
 70
     0
  9
$DIMCLRT
 70
     0
  9
$DIMTFAC
 40
1.0
  9
$DIMGAP
 40
0.09
  9
$LUNITS
 70
     2
  9
$LUPREC
 70
     4
  9
$SKETCHINC
 40
0.1
  9
$FILLETRAD
 40
0.0
  9
$AUNITS
 70
     0
  9
$AUPREC
 70
     0
  9
$MENU
  1
.
  9
$ELEVATION
 40
0.0
  9
$PELEVATION
 40
0.0
  9
$THICKNESS
 40
0.0
  9
$LIMCHECK
 70
     0
  9
$BLIPMODE
 70
     0
  9
$CHAMFERA
 40
0.0
  9
$CHAMFERB
 40
0.0
  9
$SKPOLY
 70
     0
  9
$TDCREATE
 40
2452891.5829904522
  9
$TDUPDATE
 40
2452891.5836215969
  9
$TDINDWG
 40
0.0006315046
  9
$TDUSRTIMER
 40
0.0006315046
  9
$USRTIMER
 70
     1
  9
$ANGBASE
 50
0.0
  9
$ANGDIR
 70
     0
  9
$PDMODE
 70
     0
  9
$PDSIZE
 40
0.0
  9
$PLINEWID
 40
0.0
  9
$COORDS
 70
     2
  9
$SPLFRAME
 70
     0
  9
$SPLINETYPE
 70
     6
  9
$SPLINESEGS
 70
     8
  9
$ATTDIA
 70
     0
  9
$ATTREQ
 70
     1
  9
$HANDLING
 70
     1
  9
$HANDSEED
  5
128
  9
$SURFTAB1
 70
     6
  9
$SURFTAB2
 70
     6
  9
$SURFTYPE
 70
     6
  9
$SURFU
 70
     6
  9
$SURFV
 70
     6
  9
$UCSNAME
  2

  9
$UCSORG
 10
0.0
 20
0.0
 30
0.0
  9
$UCSXDIR
 10
1.0
 20
0.0
 30
0.0
  9
$UCSYDIR
 10
0.0
 20
1.0
 30
0.0
  9
$PUCSNAME
  2

  9
$PUCSORG
 10
0.0
 20
0.0
 30
0.0
  9
$PUCSXDIR
 10
1.0
 20
0.0
 30
0.0
  9
$PUCSYDIR
 10
0.0
 20
1.0
 30
0.0
  9
$USERI1
 70
     0
  9
$USERI2
 70
     0
  9
$USERI3
 70
     0
  9
$USERI4
 70
     0
  9
$USERI5
 70
     0
  9
$USERR1
 40
0.0
  9
$USERR2
 40
0.0
  9
$USERR3
 40
0.0
  9
$USERR4
 40
0.0
  9
$USERR5
 40
0.0
  9
$WORLDVIEW
 70
     1
  9
$SHADEDGE
 70
     3
  9
$SHADEDIF
 70
    70
  9
$TILEMODE
 70
     1
  9
$MAXACTVP
 70
    64
  9
$PLIMCHECK
 70
     0
  9
$PEXTMIN
 10
1.0000000000000000E+020
 20
1.0000000000000000E+020
 30
1.0000000000000000E+020
  9
$PEXTMAX
 10
-1.0000000000000000E+020
 20
-1.0000000000000000E+020
 30
-1.0000000000000000E+020
  9
$PLIMMIN
 10
0.0
 20
0.0
  9
$PLIMMAX
 10
12.0
 20
9.0
  9
$UNITMODE
 70
     0
  9
$VISRETAIN
 70
     1
  9
$PLINEGEN
 70
     0
  9
$PSLTSCALE
 70
     1
  0
ENDSEC
  0
SECTION
  2
TABLES
  0
TABLE
  2
VPORT
 70
     3
  0
VPORT
  2
*ACTIVE
 70
     0
 10
0.0
 20
0.0
 11
1.0
 21
1.0
 12
36.398527145385742
 22
9.5998531579971331
 13
0.0
 23
0.0
 14
1.0
 24
1.0
 15
0.0
 25
0.0
 16
0.0
 26
0.0
 36
1.0
 17
0.0
 27
0.0
 37
0.0
 40
63.615286820894703
 41
2.0021691973969631
 42
50.0
 43
0.0
 44
0.0
 50
0.0
 51
0.0
 71
     0
 72
   100
 73
     1
 74
     1
 75
     0
 76
     0
 77
     0
 78
     0
  0
ENDTAB
  0
TABLE
  2
LTYPE
 70
     5
  0
LTYPE
  2
CONTINUOUS
 70
     0
  3
Solid line
 72
    65
 73
     0
 40
0.0
  0
LTYPE
  2
DASHED
 70
     0
  3
__ __ __ __ __ __ __ __ __ __ __ __ __ __ __
 72
    65
 73
     2
 40
3.5
 49
2.0
 49
-1.5
  0
LTYPE
  2
CENTER
 70
     0
  3
____ _ ____ _ ____ _ ____ _ ____ _ ____ _ ____
 72
    65
 73
     4
 40
17.5
 49
13.0
 49
-1.5
 49
1.5
 49
-1.5
  0
LTYPE
  2
PHANTOM
 70
     0
  3
_____ _ _ _____ _ _ _____ _ _ _____ _ _ ____  
 72
    65
 73
     6
 40
15.5
 49
8.0
 49
-1.5
 49
1.5
 49
-1.5
 49
1.5
 49
-1.5
  0
LTYPE
  2
DOT
 70
     0
  3
. . . . . . . . . . . . . . . . . . . . . . . .
 72
    65
 73
     2
 40
0.25
 49
0.0
 49
-0.25
  0
ENDTAB
  0
TABLE
  2
LAYER
 70
     1
  0
LAYER
  2
0
 70
     0
 62
     7
  6
CONTINUOUS
  0
ENDTAB
  0
TABLE
  2
STYLE
 70
     1
  0
STYLE
  2
STANDARD
 70
     0
 40
0.0
 41
1.0
 50
0.0
 71
     0
 42
0.2
  3
txt
  4
bigfont.shx
  0
ENDTAB
  0
TABLE
  2
VIEW
 70
     0
  0
ENDTAB
  0
TABLE
  2
UCS
 70
     0
  0
ENDTAB
  0
TABLE
  2
APPID
 70
     1
  0
APPID
  2
ACAD
 70
     0
  0
ENDTAB
  0
TABLE
  2
DIMSTYLE
 70
     1
  0
DIMSTYLE
  2
STANDARD
 70
     0
  3

  4

  5

  6

  7

 40
1.0
 41
0.18
 42
0.0625
 43
0.38
 44
0.18
 45
0.0
 46
0.0
 47
0.0
 48
0.0
140
0.18
141
0.09
142
0.0
143
25.399999999999999
144
1.0
145
0.0
146
1.0
147
0.09
 71
     0
 72
     0
 73
     1
 74
     1
 75
     0
 76
     0
 77
     0
 78
     0
170
     0
171
     2
172
     0
173
     0
174
     0
175
     0
176
     0
177
     0
178
     0
  0
ENDTAB
  0
ENDSEC
  0
SECTION
  2
BLOCKS
  0
BLOCK
  8
0
  2
$MODEL_SPACE
 70
     0
 10
0.0
 20
0.0
 30
0.0
  3
$MODEL_SPACE
  1

  0
ENDBLK
  5
22
  8
0
  0
BLOCK
 67
     1
  8
0
  2
$PAPER_SPACE
 70
     0
 10
0.0
 20
0.0
 30
0.0
  3
$PAPER_SPACE
  1

  0
ENDBLK
  5
1E
 67
     1
  8
0
  0
ENDSEC
  0
SECTION
  2
ENTITIES
  0
LINE
  5
2A
  8
0
  6
CENTER
 62
     7
 10
46.051216125488281
 20
10.29970741271973
 30
0.0
 11
46.051216125488281
 21
4.9032917022705069
 31
0.0
  0
LINE
  5
2B
  8
0
  6
DASHED
 62
     7
 10
-9.0
 20
10.0
 30
0.0
 11
-9.0
 21
7.3000001907348624
 31
0.0
  0
LINE
  5
2C
  8
0
  6
DASHED
 62
     7
 10
-8.7000045776367187
 20
10.0
 30
0.0
 11
-8.7000045776367187
 21
6.3000001907348624
 31
0.0
  0
LINE
  5
2D
  8
0
  6
DASHED
 62
     7
 10
-8.7000045776367187
 20
6.3000001907348624
 30
0.0
 11
-6.3000030517578116
 21
6.3000001907348624
 31
0.0
  0
LINE
  5
2E
  8
0
  6
DASHED
 62
     7
 10
-8.6999988555908203
 20
6.2999906539916992
 30
0.0
 11
-7.5000028610229492
 21
5.6071734428405762
 31
0.0
  0
LINE
  5
2F
  8
0
  6
DASHED
 62
     7
 10
-9.0
 20
7.3000001907348624
 30
0.0
 11
-6.0
 21
7.3000001907348624
 31
0.0
  0
LINE
  5
30
  8
0
  6
DASHED
 62
     7
 10
-6.0
 20
10.0
 30
0.0
 11
-6.0
 21
7.3260145187377921
 31
0.0
  0
LINE
  5
31
  8
0
  6
DASHED
 62
     7
 10
-6.3000030517578116
 20
10.0
 30
0.0
 11
-6.3000030517578116
 21
6.3000001907348624
 31
0.0
  0
LINE
  5
32
  8
0
  6
DASHED
 62
     7
 10
-6.3000078201293936
 20
6.3000025749206534
 30
0.0
 11
-7.5000100135803223
 21
5.6071810722351056
 31
0.0
  0
LINE
  5
33
  8
0
  6
DASHED
 62
     7
 10
-6.0085062980651864
 20
7.3112821578979492
 30
0.0
 11
-6.3000011444091788
 21
6.8063974380493164
 31
0.0
  0
LINE
  5
34
  8
0
  6
DASHED
 62
     7
 10
-9.0126237869262695
 20
7.3112907409667969
 30
0.0
 11
-8.70001220703125
 21
6.7698316574096671
 31
0.0
  0
LINE
  5
35
  8
0
  6
CONTINUOUS
 62
     7
 10
41.351211547851563
 20
9.9997043609619141
 30
0.0
 11
60.751213073730469
 21
9.9997043609619141
 31
0.0
  0
LINE
  5
36
  8
0
  6
CONTINUOUS
 62
     7
 10
41.351211547851563
 20
5.2997074127197257
 30
0.0
 11
60.751213073730469
 21
5.2997074127197257
 31
0.0
  0
LINE
  5
37
  8
0
  6
CONTINUOUS
 62
     7
 10
41.151214599609382
 20
2.1997051239013659
 30
0.0
 11
60.951213836669922
 21
2.1997051239013659
 31
0.0
  0
LINE
  5
38
  8
0
  6
CONTINUOUS
 62
     7
 10
41.151214599609382
 20
2.899705886840819
 30
0.0
 11
60.951213836669922
 21
2.899705886840819
 31
0.0
  0
LINE
  5
39
  8
0
  6
CONTINUOUS
 62
     7
 10
41.351211547851563
 20
9.9997043609619141
 30
0.0
 11
41.351211547851563
 21
5.2997074127197257
 31
0.0
  0
LINE
  5
3A
  8
0
  6
CONTINUOUS
 62
     7
 10
60.751213073730469
 20
9.9997043609619141
 30
0.0
 11
60.751213073730469
 21
5.2997074127197257
 31
0.0
  0
LINE
  5
3B
  8
0
  6
CONTINUOUS
 62
     7
 10
41.151214599609382
 20
5.79970359802246
 30
0.0
 11
41.151214599609382
 21
2.1997051239013659
 31
0.0
  0
LINE
  5
3C
  8
0
  6
CONTINUOUS
 62
     7
 10
39.221214294433601
 20
5.79970359802246
 30
0.0
 11
41.151214599609382
 21
5.79970359802246
 31
0.0
  0
LINE
  5
3D
  8
0
  6
CONTINUOUS
 62
     7
 10
39.221214294433601
 20
9.2997074127197266
 30
0.0
 11
39.221214294433601
 21
5.79970359802246
 31
0.0
  0
LINE
  5
3E
  8
0
  6
CONTINUOUS
 62
     7
 10
37.151214599609389
 20
9.2997074127197266
 30
0.0
 11
37.151214599609389
 21
2.1997051239013659
 31
0.0
  0
LINE
  5
3F
  8
0
  6
CONTINUOUS
 62
     7
 10
37.151214599609389
 20
2.1997051239013659
 30
0.0
 11
41.151214599609382
 21
2.1997051239013659
 31
0.0
  0
LINE
  5
40
  8
0
  6
CONTINUOUS
 62
     7
 10
37.151214599609389
 20
9.2997074127197266
 30
0.0
 11
41.351211547851563
 21
9.2997074127197266
 31
0.0
  0
LINE
  5
41
  8
0
  6
CONTINUOUS
 62
     7
 10
35.651214599609382
 20
5.9997081756591788
 30
0.0
 11
35.651214599609382
 21
2.1997051239013659
 31
0.0
  0
LINE
  5
42
  8
0
  6
CONTINUOUS
 62
     7
 10
36.651214599609382
 20
9.2997074127197266
 30
0.0
 11
36.651214599609382
 21
2.1997051239013659
 31
0.0
  0
LINE
  5
43
  8
0
  6
CONTINUOUS
 62
     7
 10
36.151214599609382
 20
9.2997074127197266
 30
0.0
 11
36.151214599609382
 21
8.7741603851318342
 31
0.0
  0
LINE
  5
44
  8
0
  6
CONTINUOUS
 62
     7
 10
35.651214599609382
 20
2.1997051239013659
 30
0.0
 11
37.151214599609389
 21
2.1997051239013659
 31
0.0
  0
LINE
  5
45
  8
0
  6
CONTINUOUS
 62
     7
 10
35.651214599609382
 20
5.9997081756591788
 30
0.0
 11
36.151214599609382
 21
5.9997081756591788
 31
0.0
  0
LINE
  5
46
  8
0
  6
CONTINUOUS
 62
     7
 10
36.151214599609382
 20
9.2997074127197266
 30
0.0
 11
37.151214599609389
 21
9.2997074127197266
 31
0.0
  0
LINE
  5
47
  8
0
  6
CONTINUOUS
 62
     7
 10
36.151214599609382
 20
6.6497058868408203
 30
0.0
 11
36.651214599609382
 21
6.6497058868408203
 31
0.0
  0
LINE
  5
48
  8
0
  6
CONTINUOUS
 62
     7
 10
36.551216125488281
 20
8.8997058868408203
 30
0.0
 11
36.651214599609382
 21
8.8997058868408203
 31
0.0
  0
LINE
  5
49
  8
0
  6
CONTINUOUS
 62
     7
 10
36.551216125488281
 20
6.8997058868408203
 30
0.0
 11
36.651214599609382
 21
6.8997058868408203
 31
0.0
  0
LINE
  5
4A
  8
0
  6
CONTINUOUS
 62
     7
 10
35.851211547851562
 20
8.1997051239013672
 30
0.0
 11
35.851211547851562
 21
7.5997066497802717
 31
0.0
  0
LINE
  5
4B
  8
0
  6
CONTINUOUS
 62
     7
 10
36.151214599609382
 20
7.0252513885498038
 30
0.0
 11
36.151214599609382
 21
2.1997051239013659
 31
0.0
  0
LINE
  5
4C
  8
0
  6
CONTINUOUS
 62
     7
 10
41.151214599609382
 20
2.899705886840819
 30
0.0
 11
35.651214599609382
 21
2.899705886840819
 31
0.0
  0
LINE
  5
4D
  8
0
  6
CENTER
 62
     7
 10
56.051212310791023
 20
10.29970741271973
 30
0.0
 11
56.051212310791023
 21
4.9032917022705069
 31
0.0
  0
LINE
  5
4E
  8
0
  6
CONTINUOUS
 62
     7
 10
62.881214141845703
 20
9.2997074127197266
 30
0.0
 11
62.881214141845703
 21
5.79970359802246
 31
0.0
  0
LINE
  5
4F
  8
0
  6
CONTINUOUS
 62
     7
 10
62.881214141845703
 20
5.79970359802246
 30
0.0
 11
60.951213836669922
 21
5.79970359802246
 31
0.0
  0
LINE
  5
50
  8
0
  6
CONTINUOUS
 62
     7
 10
60.951213836669922
 20
5.79970359802246
 30
0.0
 11
60.951213836669922
 21
2.1997051239013659
 31
0.0
  0
LINE
  5
51
  8
0
  6
CONTINUOUS
 62
     7
 10
60.951213836669922
 20
2.899705886840819
 30
0.0
 11
66.451210021972656
 21
2.899705886840819
 31
0.0
  0
LINE
  5
52
  8
0
  6
CONTINUOUS
 62
     7
 10
65.151214599609389
 20
2.1997051239013659
 30
0.0
 11
60.951213836669922
 21
2.1997051239013659
 31
0.0
  0
LINE
  5
53
  8
0
  6
CONTINUOUS
 62
     7
 10
65.151214599609389
 20
9.2997074127197266
 30
0.0
 11
60.751213073730469
 21
9.2997074127197266
 31
0.0
  0
LINE
  5
54
  8
0
  6
CONTINUOUS
 62
     7
 10
64.951210021972656
 20
9.2997074127197266
 30
0.0
 11
64.951210021972656
 21
2.1997051239013659
 31
0.0
  0
LINE
  5
55
  8
0
  6
CONTINUOUS
 62
     7
 10
65.451210021972656
 20
9.2997074127197266
 30
0.0
 11
65.451210021972656
 21
2.1997051239013659
 31
0.0
  0
LINE
  5
56
  8
0
  6
CONTINUOUS
 62
     7
 10
65.551216125488281
 20
8.8997058868408203
 30
0.0
 11
65.451210021972656
 21
8.8997058868408203
 31
0.0
  0
LINE
  5
57
  8
0
  6
CONTINUOUS
 62
     7
 10
65.951210021972656
 20
9.2997074127197266
 30
0.0
 11
65.951210021972656
 21
8.7741603851318342
 31
0.0
  0
LINE
  5
58
  8
0
  6
CONTINUOUS
 62
     7
 10
65.951210021972656
 20
9.2997074127197266
 30
0.0
 11
64.951210021972656
 21
9.2997074127197266
 31
0.0
  0
LINE
  5
59
  8
0
  6
CONTINUOUS
 62
     7
 10
66.251213073730469
 20
8.1997051239013672
 30
0.0
 11
66.251213073730469
 21
7.5997066497802717
 31
0.0
  0
LINE
  5
5A
  8
0
  6
CONTINUOUS
 62
     7
 10
65.551216125488281
 20
6.8997058868408203
 30
0.0
 11
65.451210021972656
 21
6.8997058868408203
 31
0.0
  0
LINE
  5
5B
  8
0
  6
CONTINUOUS
 62
     7
 10
65.951210021972656
 20
6.6497058868408203
 30
0.0
 11
65.451210021972656
 21
6.6497058868408203
 31
0.0
  0
LINE
  5
5C
  8
0
  6
CONTINUOUS
 62
     7
 10
65.951210021972656
 20
7.0252513885498038
 30
0.0
 11
65.951210021972656
 21
2.1997051239013659
 31
0.0
  0
LINE
  5
5D
  8
0
  6
CONTINUOUS
 62
     7
 10
66.451210021972656
 20
5.9997081756591788
 30
0.0
 11
65.951210021972656
 21
5.9997081756591788
 31
0.0
  0
LINE
  5
5E
  8
0
  6
CONTINUOUS
 62
     7
 10
66.451210021972656
 20
5.9997081756591788
 30
0.0
 11
66.451210021972656
 21
2.1997051239013659
 31
0.0
  0
LINE
  5
5F
  8
0
  6
CONTINUOUS
 62
     7
 10
66.451210021972656
 20
2.1997051239013659
 30
0.0
 11
64.951210021972656
 21
2.1997051239013659
 31
0.0
  0
LINE
  5
60
  8
0
  6
CONTINUOUS
 62
     7
 10
23.551385879516602
 20
-0.0002956483804155
 30
0.0
 11
81.551383972167969
 21
-0.0002956483804155
 31
0.0
  0
LINE
  5
61
  8
0
  6
CONTINUOUS
 62
     7
 10
23.551385879516602
 20
2.7927875518798828
 30
0.0
 11
35.651214599609382
 21
2.7927875518798828
 31
0.0
  0
LINE
  5
62
  8
0
  6
CONTINUOUS
 62
     7
 10
23.551385879516602
 20
4.8066234588623038
 30
0.0
 11
35.651214599609382
 21
4.8066234588623038
 31
0.0
  0
LINE
  5
63
  8
0
  6
CONTINUOUS
 62
     7
 10
23.551385879516602
 20
5.4997081756591788
 30
0.0
 11
35.651214599609382
 21
5.4997081756591788
 31
0.0
  0
LINE
  5
64
  8
0
  6
CONTINUOUS
 62
     7
 10
66.451210021972656
 20
5.4997081756591788
 30
0.0
 11
81.551383972167969
 21
5.4997081756591788
 31
0.0
  0
LINE
  5
65
  8
0
  6
CONTINUOUS
 62
     7
 10
66.451210021972656
 20
4.8066234588623038
 30
0.0
 11
81.551383972167969
 21
4.8066234588623038
 31
0.0
  0
LINE
  5
66
  8
0
  6
CONTINUOUS
 62
     7
 10
66.451210021972656
 20
2.7927875518798828
 30
0.0
 11
81.551383972167969
 21
2.7927875518798828
 31
0.0
  0
LINE
  5
67
  8
0
  6
DASHED
 62
     7
 10
28.051385879516602
 20
5.4997081756591788
 30
0.0
 11
28.051385879516602
 21
2.1997089385986328
 31
0.0
  0
LINE
  5
68
  8
0
  6
DASHED
 62
     7
 10
29.301385879516602
 20
2.1997089385986328
 30
0.0
 11
29.301385879516602
 21
-0.0002956483804155
 31
0.0
  0
LINE
  5
69
  8
0
  6
DASHED
 62
     7
 10
32.801383972167969
 20
2.1997089385986328
 30
0.0
 11
32.801383972167969
 21
-0.0002956483804155
 31
0.0
  0
LINE
  5
6A
  8
0
  6
DASHED
 62
     7
 10
28.051385879516602
 20
2.1997089385986328
 30
0.0
 11
34.051383972167969
 21
2.1997089385986328
 31
0.0
  0
LINE
  5
6B
  8
0
  6
CENTER
 62
     7
 10
51.051383972167969
 20
3.521348953247069
 30
0.0
 11
51.051383972167969
 21
-1.0203113555908201
 31
0.0
  0
LINE
  5
6C
  8
0
  6
CENTER
 62
     7
 10
0.0
 20
-1.0775852203369141
 30
0.0
 11
0.0
 21
10.30000114440918
 31
0.0
  0
LINE
  5
6D
  8
0
  6
CONTINUOUS
 62
     7
 10
9.5
 20
10.0
 30
0.0
 11
5.5999984741210929
 21
10.0
 31
0.0
  0
LINE
  5
6E
  8
0
  6
CONTINUOUS
 62
     7
 10
9.92999267578125
 20
2.9000015258789058
 30
0.0
 11
9.92999267578125
 21
5.0
 31
0.0
  0
LINE
  5
6F
  8
0
  6
CENTER
 62
     7
 10
7.5
 20
10.30000114440918
 30
0.0
 11
7.5
 21
4.90358543395996
 31
0.0
  0
LINE
  5
70
  8
0
  6
CONTINUOUS
 62
     7
 10
-9.5
 20
10.0
 30
0.0
 11
-5.600006103515625
 21
10.0
 31
0.0
  0
LINE
  5
71
  8
0
  6
CONTINUOUS
 62
     7
 10
-9.9300003051757795
 20
2.9000015258789058
 30
0.0
 11
-9.9300003051757795
 21
5.0
 31
0.0
  0
LINE
  5
72
  8
0
  6
CENTER
 62
     7
 10
-7.5
 20
10.30000114440918
 30
0.0
 11
-7.5
 21
5.0035824775695801
 31
0.0
  0
LINE
  5
73
  8
0
  6
CONTINUOUS
 62
     7
 10
-10.0
 20
5.3000001907348633
 30
0.0
 11
-10.0
 21
9.5
 31
0.0
  0
LINE
  5
74
  8
0
  6
CONTINUOUS
 62
     7
 10
4.5000004768371582
 20
9.4000053405761719
 30
0.0
 11
4.0999979972839364
 21
9.8000078201293963
 31
0.0
  0
LINE
  5
75
  8
0
  6
CONTINUOUS
 62
     7
 10
4.0999984741210929
 20
9.8000011444091797
 30
0.0
 11
-4.100006103515625
 21
9.8000011444091797
 31
0.0
  0
LINE
  5
76
  8
0
  6
CONTINUOUS
 62
     7
 10
10.0
 20
5.3000001907348633
 30
0.0
 11
10.0
 21
9.5
 31
0.0
  0
LINE
  5
77
  8
0
  6
CONTINUOUS
 62
     7
 10
-9.6999969482421875
 20
5.2300138473510742
 30
0.0
 11
-9.9300041198730469
 21
5.000006675720214
 31
0.0
  0
LINE
  5
78
  8
0
  6
CONTINUOUS
 62
     7
 10
-9.7064037322998047
 20
5.223607063293457
 30
0.0
 11
-9.8000030517578125
 21
5.223607063293457
 31
0.0
  0
LINE
  5
79
  8
0
  6
CONTINUOUS
 62
     7
 10
9.9999961853027344
 20
9.5000038146972656
 30
0.0
 11
9.4999952316284162
 21
10.000003814697269
 31
0.0
  0
LINE
  5
7A
  8
0
  6
CONTINUOUS
 62
     7
 10
-10.000003814697269
 20
9.5000038146972656
 30
0.0
 11
-9.5000038146972656
 21
10.000003814697269
 31
0.0
  0
LINE
  5
7B
  8
0
  6
CONTINUOUS
 62
     7
 10
9.2300004959106445
 20
2.2000007629394531
 30
0.0
 11
4.5
 21
2.2000007629394531
 31
0.0
  0
LINE
  5
7C
  8
0
  6
CONTINUOUS
 62
     7
 10
-5.2050213813781729
 20
9.6050281524658203
 30
0.0
 11
-5.6000013351440421
 21
10.000007629394529
 31
0.0
  0
LINE
  5
7D
  8
0
  6
CONTINUOUS
 62
     7
 10
4.710052490234375
 20
9.4000015258789062
 30
0.0
 11
4.5000052452087402
 21
9.4000015258789062
 31
0.0
  0
LINE
  5
7E
  8
0
  6
CONTINUOUS
 62
     7
 10
5.2050185203552237
 20
9.6050348281860352
 30
0.0
 11
5.5999932289123526
 21
10.000009536743161
 31
0.0
  0
LINE
  5
7F
  8
0
  6
CONTINUOUS
 62
     7
 10
-4.5000004768371582
 20
9.4000034332275391
 30
0.0
 11
-4.1000008583068839
 21
9.8000030517578125
 31
0.0
  0
LINE
  5
80
  8
0
  6
CONTINUOUS
 62
     7
 10
9.2300024032592756
 20
2.2000021934509282
 30
0.0
 11
9.9300012588500977
 21
2.9000012874603258
 31
0.0
  0
LINE
  5
81
  8
0
  6
CONTINUOUS
 62
     7
 10
-4.500002384185791
 20
9.4000015258789062
 30
0.0
 11
-4.710052490234375
 21
9.4000015258789062
 31
0.0
  0
LINE
  5
82
  8
0
  6
CONTINUOUS
 62
     7
 10
4.0
 20
0.0
 30
0.0
 11
-4.0
 21
0.0
 31
0.0
  0
LINE
  5
83
  8
0
  6
CONTINUOUS
 62
     7
 10
4.0999984741210929
 20
5.5000019073486319
 30
0.0
 11
-4.0999984741210929
 21
5.5000019073486319
 31
0.0
  0
LINE
  5
84
  8
0
  6
CONTINUOUS
 62
     7
 10
-4.5
 20
0.5
 30
0.0
 11
-4.5
 21
2.7930831909179692
 31
0.0
  0
LINE
  5
85
  8
0
  6
CONTINUOUS
 62
     7
 10
-4.5
 20
4.8069190979003906
 30
0.0
 11
-4.5
 21
5.1000022888183576
 31
0.0
  0
LINE
  5
86
  8
0
  6
CONTINUOUS
 62
     7
 10
-4.5000004768371582
 20
5.1000046730041504
 30
0.0
 11
-4.1000008583068839
 21
5.500004768371582
 31
0.0
  0
LINE
  5
87
  8
0
  6
CONTINUOUS
 62
     7
 10
-4.5000042915344229
 20
0.5000067353248597
 30
0.0
 11
-4.0000038146972656
 21
0.0000062377334871
 31
0.0
  0
LINE
  5
88
  8
0
  6
DASHED
 62
     7
 10
-3.0
 20
2.2000007629394531
 30
0.0
 11
-3.0
 21
5.5000019073486319
 31
0.0
  0
LINE
  5
89
  8
0
  6
DASHED
 62
     7
 10
-1.75
 20
0.0
 30
0.0
 11
-1.75
 21
2.2000007629394531
 31
0.0
  0
LINE
  5
8A
  8
0
  6
DASHED
 62
     7
 10
3.0
 20
2.2000007629394531
 30
0.0
 11
-3.0
 21
2.2000007629394531
 31
0.0
  0
LINE
  5
8B
  8
0
  6
DASHED
 62
     7
 10
1.75
 20
0.0
 30
0.0
 11
1.75
 21
2.2000007629394531
 31
0.0
  0
LINE
  5
8C
  8
0
  6
DASHED
 62
     7
 10
3.0
 20
2.2000007629394531
 30
0.0
 11
3.0
 21
5.5000019073486319
 31
0.0
  0
LINE
  5
8D
  8
0
  6
CONTINUOUS
 62
     7
 10
4.5000014305114737
 20
0.5000025629997255
 30
0.0
 11
4.0000009536743164
 21
0.0000020230486371
 31
0.0
  0
LINE
  5
8E
  8
0
  6
CONTINUOUS
 62
     7
 10
4.5
 20
0.5
 30
0.0
 11
4.5
 21
2.7930831909179692
 31
0.0
  0
LINE
  5
8F
  8
0
  6
CONTINUOUS
 62
     7
 10
4.5
 20
4.8069190979003906
 30
0.0
 11
4.5
 21
5.1000022888183576
 31
0.0
  0
LINE
  5
90
  8
0
  6
CONTINUOUS
 62
     7
 10
4.4999980926513672
 20
5.1000046730041504
 30
0.0
 11
4.0999951362609863
 21
5.5000076293945313
 31
0.0
  0
LINE
  5
91
  8
0
  6
CONTINUOUS
 62
     7
 10
-9.3999929428100604
 20
9.3000011444091797
 30
0.0
 11
9.3999938964843768
 21
9.3000011444091797
 31
0.0
  0
LINE
  5
92
  8
0
  6
CONTINUOUS
 62
     7
 10
9.9300003051757795
 20
2.9000015258789058
 30
0.0
 11
9.9300003051757795
 21
5.0
 31
0.0
  0
LINE
  5
93
  8
0
  6
CONTINUOUS
 62
     7
 10
9.6999969482421875
 20
9.0000019073486328
 30
0.0
 11
9.6999969482421875
 21
2.6999969482421871
 31
0.0
  0
LINE
  5
94
  8
0
  6
CONTINUOUS
 62
     7
 10
9.6999912261962873
 20
9.0000028610229492
 30
0.0
 11
9.3999919891357422
 21
9.3000020980834961
 31
0.0
  0
LINE
  5
95
  8
0
  6
CONTINUOUS
 62
     7
 10
9.6999969482421875
 20
5.2300004959106436
 30
0.0
 11
9.9299983978271484
 21
4.9999990463256827
 31
0.0
  0
LINE
  5
96
  8
0
  6
CONTINUOUS
 62
     7
 10
9.2300024032592756
 20
2.2000021934509282
 30
0.0
 11
9.9299983978271484
 21
2.899998426437377
 31
0.0
  0
LINE
  5
97
  8
0
  6
CONTINUOUS
 62
     7
 10
5.0
 20
2.2000007629394531
 30
0.0
 11
5.0
 21
5.0000019073486319
 31
0.0
  0
LINE
  5
98
  8
0
  6
CONTINUOUS
 62
     7
 10
8.1999969482421875
 20
6.6500015258789062
 30
0.0
 11
9.6999969482421875
 21
6.6500015258789062
 31
0.0
  0
LINE
  5
99
  8
0
  6
CONTINUOUS
 62
     7
 10
6.9499969482421866
 20
9.3000011444091797
 30
0.0
 11
6.9499969482421866
 21
7.9000015258789062
 31
0.0
  0
LINE
  5
9A
  8
0
  6
CONTINUOUS
 62
     7
 10
9.7000026702880842
 20
2.700000286102294
 30
0.0
 11
9.2000026702880842
 21
2.1999998092651358
 31
0.0
  0
LINE
  5
9B
  8
0
  6
CONTINUOUS
 62
     7
 10
9.7063903808593768
 20
5.223607063293457
 30
0.0
 11
9.7999954223632795
 21
5.223607063293457
 31
0.0
  0
LINE
  5
9C
  8
0
  6
CONTINUOUS
 62
     7
 10
-9.2299976348876953
 20
2.2000007629394531
 30
0.0
 11
-4.5
 21
2.2000007629394531
 31
0.0
  0
LINE
  5
9D
  8
0
  6
CONTINUOUS
 62
     7
 10
-9.92999267578125
 20
2.9000015258789058
 30
0.0
 11
-9.92999267578125
 21
5.0
 31
0.0
  0
LINE
  5
9E
  8
0
  6
CONTINUOUS
 62
     7
 10
-9.2300024032592756
 20
2.2000048160552979
 30
0.0
 11
-9.9299983978271484
 21
2.9000012874603258
 31
0.0
  0
LINE
  5
9F
  8
0
  6
CONTINUOUS
 62
     7
 10
-9.2300024032592756
 20
2.2000048160552979
 30
0.0
 11
-9.9299983978271484
 21
2.9000012874603258
 31
0.0
  0
LINE
  5
A0
  8
0
  6
CONTINUOUS
 62
     7
 10
-9.6999998092651367
 20
2.699998855590819
 30
0.0
 11
-9.1999998092651367
 21
2.1999983787536621
 31
0.0
  0
LINE
  5
A1
  8
0
  6
CONTINUOUS
 62
     7
 10
-9.6999969482421875
 20
8.9999971389770508
 30
0.0
 11
-9.6999969482421875
 21
2.6999969482421871
 31
0.0
  0
LINE
  5
A2
  8
0
  6
CONTINUOUS
 62
     7
 10
-5.0
 20
2.2000007629394531
 30
0.0
 11
-5.0
 21
5.0000019073486319
 31
0.0
  0
LINE
  5
A3
  8
0
  6
CENTER
 62
     7
 10
0.0
 20
-1.0775852203369141
 30
0.0
 11
0.0
 21
10.30000114440918
 31
0.0
  0
LINE
  5
A4
  8
0
  6
CONTINUOUS
 62
     7
 10
4.0
 20
6.0000019073486319
 30
0.0
 11
-4.0
 21
6.0000019073486319
 31
0.0
  0
LINE
  5
A5
  8
0
  6
CONTINUOUS
 62
     7
 10
39.198917388916023
 20
9.2997102737426758
 30
0.0
 11
41.351211547851563
 21
9.7571945190429652
 31
0.0
  0
LINE
  5
A6
  8
0
  6
CONTINUOUS
 62
     7
 10
62.90350341796875
 20
9.2997055053710937
 30
0.0
 11
60.751213073730469
 21
9.7571897506713867
 31
0.0
  0
LINE
  5
A7
  8
0
  6
CONTINUOUS
 62
     7
 10
-9.6999912261962873
 20
9.0000028610229492
 30
0.0
 11
-9.3999919891357422
 21
9.3000020980834961
 31
0.0
  0
LINE
  5
A8
  8
0
  6
CONTINUOUS
 62
     7
 10
-6.9499969482421866
 20
9.3000011444091797
 30
0.0
 11
-6.9499969482421866
 21
7.9000015258789062
 31
0.0
  0
LINE
  5
A9
  8
0
  6
CONTINUOUS
 62
     7
 10
-8.1999969482421875
 20
6.6500015258789062
 30
0.0
 11
-9.6999969482421875
 21
6.6500015258789062
 31
0.0
  0
LINE
  5
AA
  8
0
  6
CONTINUOUS
 62
     7
 10
-8.6949720382690412
 20
8.3949766159057635
 30
0.0
 11
-7.705021858215332
 21
7.4050264358520499
 31
0.0
  0
LINE
  5
AB
  8
0
  6
CONTINUOUS
 62
     7
 10
-8.6949720382690412
 20
7.4050269126892081
 30
0.0
 11
-7.7050223350524902
 21
8.3949766159057635
 31
0.0
  0
LINE
  5
AC
  8
0
  6
CENTER
 62
     7
 10
31.051385879516602
 20
6.8765125274658203
 30
0.0
 11
31.051385879516602
 21
-1.0203113555908201
 31
0.0
  0
LINE
  5
AD
  8
0
  6
DASHED
 62
     7
 10
34.051383972167969
 20
5.4997081756591788
 30
0.0
 11
34.051383972167969
 21
2.1997089385986328
 31
0.0
  0
LINE
  5
AE
  8
0
  6
CONTINUOUS
 62
     7
 10
23.551385879516602
 20
5.4997081756591788
 30
0.0
 11
23.551385879516602
 21
-0.0002956483804155
 31
0.0
  0
LINE
  5
AF
  8
0
  6
CONTINUOUS
 62
     7
 10
81.551383972167969
 20
5.4997081756591788
 30
0.0
 11
81.551383972167969
 21
-0.0002956483804155
 31
0.0
  0
LINE
  5
B0
  8
0
  6
CONTINUOUS
 62
     7
 10
23.551385879516602
 20
35.499706268310547
 30
0.0
 11
35.651214599609382
 21
35.499706268310547
 31
0.0
  0
LINE
  5
B1
  8
0
  6
CONTINUOUS
 62
     7
 10
66.451210021972656
 20
35.499706268310547
 30
0.0
 11
81.551383972167969
 21
35.499706268310547
 31
0.0
  0
LINE
  5
B2
  8
0
  6
CONTINUOUS
 62
     7
 10
23.551385879516602
 20
26.49970817565918
 30
0.0
 11
35.651214599609382
 21
26.49970817565918
 31
0.0
  0
LINE
  5
B3
  8
0
  6
CONTINUOUS
 62
     7
 10
66.451210021972656
 20
26.49970817565918
 30
0.0
 11
81.551383972167969
 21
26.49970817565918
 31
0.0
  0
LINE
  5
B4
  8
0
  6
CONTINUOUS
 62
     7
 10
35.651214599609382
 20
35.999706268310547
 30
0.0
 11
35.651214599609382
 21
25.99970817565918
 31
0.0
  0
LINE
  5
B5
  8
0
  6
CONTINUOUS
 62
     7
 10
36.151214599609382
 20
40.69970703125
 30
0.0
 11
36.151214599609382
 21
40.074161529541023
 31
0.0
  0
LINE
  5
B6
  8
0
  6
CONTINUOUS
 62
     7
 10
36.651214599609382
 20
40.69970703125
 30
0.0
 11
36.651214599609382
 21
21.29970741271973
 31
0.0
  0
LINE
  5
B7
  8
0
  6
CONTINUOUS
 62
     7
 10
37.151214599609389
 20
40.69970703125
 30
0.0
 11
37.151214599609389
 21
21.29970741271973
 31
0.0
  0
LINE
  5
B8
  8
0
  6
CONTINUOUS
 62
     7
 10
39.221214294433601
 20
40.99970626831054
 30
0.0
 11
39.221214294433601
 21
20.99970817565918
 31
0.0
  0
LINE
  5
B9
  8
0
  6
CONTINUOUS
 62
     7
 10
41.351211547851563
 20
40.99970626831054
 30
0.0
 11
41.351211547851563
 21
35.499706268310547
 31
0.0
  0
LINE
  5
BA
  8
0
  6
CONTINUOUS
 62
     7
 10
60.751213073730469
 20
40.99970626831054
 30
0.0
 11
60.751213073730469
 21
35.499706268310547
 31
0.0
  0
LINE
  5
BB
  8
0
  6
CONTINUOUS
 62
     7
 10
62.881214141845703
 20
40.99970626831054
 30
0.0
 11
62.881214141845703
 21
20.99970817565918
 31
0.0
  0
LINE
  5
BC
  8
0
  6
CENTER
 62
     7
 10
22.427978515625
 20
30.99970817565918
 30
0.0
 11
82.79705810546875
 21
30.99970817565918
 31
0.0
  0
LINE
  5
BD
  8
0
  6
CONTINUOUS
 62
     7
 10
39.221214294433601
 20
20.99970817565918
 30
0.0
 11
62.881214141845703
 21
20.99970817565918
 31
0.0
  0
LINE
  5
BE
  8
0
  6
CONTINUOUS
 62
     7
 10
39.221214294433601
 20
40.99970626831054
 30
0.0
 11
62.881214141845703
 21
40.99970626831054
 31
0.0
  0
LINE
  5
BF
  8
0
  6
CONTINUOUS
 62
     7
 10
35.651214599609382
 20
35.999706268310547
 30
0.0
 11
36.151214599609382
 21
35.999706268310547
 31
0.0
  0
LINE
  5
C0
  8
0
  6
CONTINUOUS
 62
     7
 10
35.651214599609382
 20
25.99970817565918
 30
0.0
 11
36.151214599609382
 21
25.99970817565918
 31
0.0
  0
LINE
  5
C1
  8
0
  6
CONTINUOUS
 62
     7
 10
36.151214599609382
 20
40.69970703125
 30
0.0
 11
39.221214294433601
 21
40.69970703125
 31
0.0
  0
LINE
  5
C2
  8
0
  6
CONTINUOUS
 62
     7
 10
36.151214599609382
 20
21.29970741271973
 30
0.0
 11
39.221214294433601
 21
21.29970741271973
 31
0.0
  0
LINE
  5
C3
  8
0
  6
CONTINUOUS
 62
     7
 10
36.551216125488281
 20
40.199707031249993
 30
0.0
 11
36.651214599609382
 21
40.199707031249993
 31
0.0
  0
LINE
  5
C4
  8
0
  6
CONTINUOUS
 62
     7
 10
36.551216125488281
 20
38.19970703125
 30
0.0
 11
36.651214599609382
 21
38.19970703125
 31
0.0
  0
LINE
  5
C5
  8
0
  6
CONTINUOUS
 62
     7
 10
35.851211547851562
 20
39.499706268310547
 30
0.0
 11
35.851211547851562
 21
38.899707794189453
 31
0.0
  0
LINE
  5
C6
  8
0
  6
CONTINUOUS
 62
     7
 10
35.851211547851562
 20
23.09970664978027
 30
0.0
 11
35.851211547851562
 21
22.49970817565918
 31
0.0
  0
LINE
  5
C7
  8
0
  6
CONTINUOUS
 62
     7
 10
36.551216125488281
 20
23.79970741271973
 30
0.0
 11
36.651214599609382
 21
23.79970741271973
 31
0.0
  0
LINE
  5
C8
  8
0
  6
CONTINUOUS
 62
     7
 10
36.551216125488281
 20
21.79970741271973
 30
0.0
 11
36.651214599609382
 21
21.79970741271973
 31
0.0
  0
LINE
  5
C9
  8
0
  6
CONTINUOUS
 62
     7
 10
36.151214599609382
 20
21.925252914428711
 30
0.0
 11
36.151214599609382
 21
21.29970741271973
 31
0.0
  0
LINE
  5
CA
  8
0
  6
CONTINUOUS
 62
     7
 10
36.151214599609382
 20
38.325252532958977
 30
0.0
 11
36.151214599609382
 21
23.674161911010739
 31
0.0
  0
LINE
  5
CB
  8
0
  6
CONTINUOUS
 62
     7
 10
39.221214294433601
 20
35.499706268310547
 30
0.0
 11
62.881214141845703
 21
35.499706268310547
 31
0.0
  0
LINE
  5
CC
  8
0
  6
CONTINUOUS
 62
     7
 10
39.221214294433601
 20
26.49970817565918
 30
0.0
 11
62.881214141845703
 21
26.49970817565918
 31
0.0
  0
LINE
  5
CD
  8
0
  6
CONTINUOUS
 62
     7
 10
41.351211547851563
 20
25.99970817565918
 30
0.0
 11
60.751213073730469
 21
25.99970817565918
 31
0.0
  0
LINE
  5
CE
  8
0
  6
CONTINUOUS
 62
     7
 10
41.351211547851563
 20
35.999706268310547
 30
0.0
 11
60.751213073730469
 21
35.999706268310547
 31
0.0
  0
LINE
  5
CF
  8
0
  6
CONTINUOUS
 62
     7
 10
65.951210021972656
 20
38.325252532958977
 30
0.0
 11
65.951210021972656
 21
23.674161911010739
 31
0.0
  0
LINE
  5
D0
  8
0
  6
CONTINUOUS
 62
     7
 10
65.951210021972656
 20
21.925252914428711
 30
0.0
 11
65.951210021972656
 21
21.29970741271973
 31
0.0
  0
LINE
  5
D1
  8
0
  6
CONTINUOUS
 62
     7
 10
65.55120849609375
 20
21.79970741271973
 30
0.0
 11
65.451210021972656
 21
21.79970741271973
 31
0.0
  0
LINE
  5
D2
  8
0
  6
CONTINUOUS
 62
     7
 10
65.55120849609375
 20
23.79970741271973
 30
0.0
 11
65.451210021972656
 21
23.79970741271973
 31
0.0
  0
LINE
  5
D3
  8
0
  6
CONTINUOUS
 62
     7
 10
66.451210021972656
 20
35.999706268310547
 30
0.0
 11
65.951210021972656
 21
35.999706268310547
 31
0.0
  0
LINE
  5
D4
  8
0
  6
CONTINUOUS
 62
     7
 10
66.451210021972656
 20
25.99970817565918
 30
0.0
 11
65.951210021972656
 21
25.99970817565918
 31
0.0
  0
LINE
  5
D5
  8
0
  6
CONTINUOUS
 62
     7
 10
66.251213073730469
 20
39.499706268310547
 30
0.0
 11
66.251213073730469
 21
38.899707794189453
 31
0.0
  0
LINE
  5
D6
  8
0
  6
CONTINUOUS
 62
     7
 10
66.251213073730469
 20
23.09970664978027
 30
0.0
 11
66.251213073730469
 21
22.49970817565918
 31
0.0
  0
LINE
  5
D7
  8
0
  6
CONTINUOUS
 62
     7
 10
65.951210021972656
 20
21.29970741271973
 30
0.0
 11
62.881210327148438
 21
21.29970741271973
 31
0.0
  0
LINE
  5
D8
  8
0
  6
CONTINUOUS
 62
     7
 10
65.951210021972656
 20
40.69970703125
 30
0.0
 11
62.881210327148438
 21
40.69970703125
 31
0.0
  0
LINE
  5
D9
  8
0
  6
CONTINUOUS
 62
     7
 10
65.55120849609375
 20
40.199707031249993
 30
0.0
 11
65.451210021972656
 21
40.199707031249993
 31
0.0
  0
LINE
  5
DA
  8
0
  6
CONTINUOUS
 62
     7
 10
65.55120849609375
 20
38.19970703125
 30
0.0
 11
65.451210021972656
 21
38.19970703125
 31
0.0
  0
LINE
  5
DB
  8
0
  6
CONTINUOUS
 62
     7
 10
64.951210021972656
 20
40.69970703125
 30
0.0
 11
64.951210021972656
 21
21.29970741271973
 31
0.0
  0
LINE
  5
DC
  8
0
  6
CONTINUOUS
 62
     7
 10
65.451210021972656
 20
40.69970703125
 30
0.0
 11
65.451210021972656
 21
21.29970741271973
 31
0.0
  0
LINE
  5
DD
  8
0
  6
CONTINUOUS
 62
     7
 10
65.951210021972656
 20
40.69970703125
 30
0.0
 11
65.951210021972656
 21
40.074161529541023
 31
0.0
  0
LINE
  5
DE
  8
0
  6
CONTINUOUS
 62
     7
 10
66.451210021972656
 20
35.999706268310547
 30
0.0
 11
66.451210021972656
 21
25.99970817565918
 31
0.0
  0
LINE
  5
DF
  8
0
  6
CONTINUOUS
 62
     7
 10
60.751213073730469
 20
26.49970817565918
 30
0.0
 11
60.751213073730469
 21
20.99970817565918
 31
0.0
  0
LINE
  5
E0
  8
0
  6
CONTINUOUS
 62
     7
 10
41.351211547851563
 20
26.49970817565918
 30
0.0
 11
41.351211547851563
 21
20.99970817565918
 31
0.0
  0
LINE
  5
E1
  8
0
  6
CENTER
 62
     7
 10
46.051216125488281
 20
25.134708404541019
 30
0.0
 11
46.051216125488281
 21
21.86470794677734
 31
0.0
  0
LINE
  5
E2
  8
0
  6
CENTER
 62
     7
 10
44.416213989257813
 20
23.49970817565918
 30
0.0
 11
47.68621444702147
 21
23.49970817565918
 31
0.0
  0
LINE
  5
E3
  8
0
  6
CENTER
 62
     7
 10
56.051212310791023
 20
25.134708404541019
 30
0.0
 11
56.051212310791023
 21
21.86470794677734
 31
0.0
  0
LINE
  5
E4
  8
0
  6
CENTER
 62
     7
 10
54.41621017456054
 20
23.49970817565918
 30
0.0
 11
57.686210632324219
 21
23.49970817565918
 31
0.0
  0
LINE
  5
E5
  8
0
  6
CENTER
 62
     7
 10
56.051212310791023
 20
40.134708404541023
 30
0.0
 11
56.051212310791023
 21
36.864707946777351
 31
0.0
  0
LINE
  5
E6
  8
0
  6
CENTER
 62
     7
 10
54.41621017456054
 20
38.499706268310547
 30
0.0
 11
57.686210632324219
 21
38.499706268310547
 31
0.0
  0
LINE
  5
E7
  8
0
  6
CENTER
 62
     7
 10
46.051216125488281
 20
40.134708404541023
 30
0.0
 11
46.051216125488281
 21
36.864707946777351
 31
0.0
  0
LINE
  5
E8
  8
0
  6
CENTER
 62
     7
 10
44.416213989257813
 20
38.499706268310547
 30
0.0
 11
47.68621444702147
 21
38.499706268310547
 31
0.0
  0
LINE
  5
E9
  8
0
  6
CENTER
 62
     7
 10
31.051210403442379
 20
34.134708404541023
 30
0.0
 11
31.051210403442379
 21
27.86470794677734
 31
0.0
  0
LINE
  5
EA
  8
0
  6
CENTER
 62
     7
 10
51.051212310791023
 20
34.134708404541023
 30
0.0
 11
51.051212310791023
 21
27.86470794677734
 31
0.0
  0
LINE
  5
EB
  8
0
  6
CENTER
 62
     7
 10
71.05120849609375
 20
34.134708404541023
 30
0.0
 11
71.05120849609375
 21
27.840118408203129
 31
0.0
  0
LINE
  5
EC
  8
0
  6
CONTINUOUS
 62
     7
 10
23.551385879516602
 20
35.499706268310547
 30
0.0
 11
23.551385879516602
 21
26.49970817565918
 31
0.0
  0
LINE
  5
ED
  8
0
  6
CONTINUOUS
 62
     7
 10
81.551383972167969
 20
35.499706268310547
 30
0.0
 11
81.551383972167969
 21
26.49970817565918
 31
0.0
  0
LINE
  5
EE
  8
0
  6
CENTER
 62
     7
 10
71.05120849609375
 20
6.8134560585021973
 30
0.0
 11
71.05120849609375
 21
-2.2743382453918448
 31
0.0
  0
LINE
  5
EF
  8
0
  6
CENTER
 62
     7
 10
-1.8000075817108141
 20
7.6000003814697266
 30
0.0
 11
1.7999923229217529
 21
7.6000003814697266
 31
0.0
  0
ARC
  5
F0
  8
0
  6
CONTINUOUS
 62
     7
 10
36.551216125488281
 20
8.1997051239013672
 30
0.0
 40
0.6999999880790718
 50
90.000002504478303
 51
180.00000500895629
  0
ARC
  5
F1
  8
0
  6
CONTINUOUS
 62
     7
 10
36.551216125488281
 20
7.5997066497802717
 30
0.0
 40
0.699999988079072
 50
179.99999134857799
 51
270.0000006832451
  0
ARC
  5
F2
  8
0
  6
CONTINUOUS
 62
     7
 10
65.551216125488281
 20
8.1997051239013672
 30
0.0
 40
0.699999988079071
 50
0.0
 51
90.000002504478303
  0
ARC
  5
F3
  8
0
  6
CONTINUOUS
 62
     7
 10
65.551216125488281
 20
7.5997066497802717
 30
0.0
 40
0.6999999880790709
 50
269.99999749552171
 51
0.0
  0
ARC
  5
F4
  8
0
  6
CONTINUOUS
 62
     7
 10
4.710052490234375
 20
10.10000038146973
 30
0.0
 40
0.6999999880790718
 50
269.99999749552182
 51
314.99999874776091
  0
ARC
  5
F5
  8
0
  6
CONTINUOUS
 62
     7
 10
-4.710052490234375
 20
10.10000038146973
 30
0.0
 40
0.699999988079071
 50
224.99999965837739
 51
269.99999749552182
  0
ARC
  5
F6
  8
0
  6
CONTINUOUS
 62
     7
 10
-9.8000030517578125
 20
5.523606300354003
 30
0.0
 40
0.3000000119209297
 50
228.1896843403949
 51
269.99999749552182
  0
ARC
  5
F7
  8
0
  6
CONTINUOUS
 62
     7
 10
9.7999954223632795
 20
5.523606300354003
 30
0.0
 40
0.3000000119209292
 50
269.99999749552182
 51
311.81031406574328
  0
ARC
  5
F8
  8
0
  6
CONTINUOUS
 62
     7
 10
-4.7207107543945313
 20
3.729290008544921
 30
0.0
 40
1.100000023841857
 50
3.6856533190693832
 51
78.425174616191839
  0
ARC
  5
F9
  8
0
  6
CONTINUOUS
 62
     7
 10
-4.7207107543945313
 20
3.8707122802734371
 30
0.0
 40
1.100000023841857
 50
281.57482538380822
 51
356.31434668093061
  0
ARC
  5
FA
  8
0
  6
CONTINUOUS
 62
     7
 10
4.7207107543945313
 20
3.8707122802734371
 30
0.0
 40
1.100000023841857
 50
183.68564702945261
 51
258.42517643742468
  0
ARC
  5
FB
  8
0
  6
CONTINUOUS
 62
     7
 10
4.7207107543945313
 20
3.729290008544921
 30
0.0
 40
1.100000023841857
 50
101.5748235625753
 51
176.31435297054739
  0
CIRCLE
  5
FC
  8
0
  6
CONTINUOUS
 62
     7
 10
-0.0000076293945313
 20
7.6000003814697266
 30
0.0
 40
0.8000000119209291
  0
ARC
  5
FD
  8
0
  6
CONTINUOUS
 62
     7
 10
8.1999969482421875
 20
7.9000015258789062
 30
0.0
 40
1.25
 50
179.99999134857799
 51
270.00000068324528
  0
ARC
  5
FE
  8
0
  6
CONTINUOUS
 62
     7
 10
4.0
 20
5.0000019073486319
 30
0.0
 40
1.0
 50
0.0
 51
90.000002504478147
  0
CIRCLE
  5
FF
  8
0
  6
CONTINUOUS
 62
     7
 10
8.1999969482421875
 20
7.9000015258789062
 30
0.0
 40
1.0
  0
ARC
  5
100
  8
0
  6
CONTINUOUS
 62
     7
 10
-4.0
 20
5.0000019073486319
 30
0.0
 40
1.0
 50
89.999995674288996
 51
180.00000500895629
  0
ARC
  5
101
  8
0
  6
CONTINUOUS
 62
     7
 10
-8.1999969482421875
 20
7.9000015258789062
 30
0.0
 40
1.25
 50
269.99999749552182
 51
0.0000086514222091
  0
CIRCLE
  5
102
  8
0
  6
CONTINUOUS
 62
     7
 10
-8.1999969482421875
 20
7.9000015258789062
 30
0.0
 40
1.0
  0
ARC
  5
103
  8
0
  6
CONTINUOUS
 62
     7
 10
36.551216125488281
 20
38.899707794189453
 30
0.0
 40
0.699999988079072
 50
179.99999134857819
 51
270.0000006832451
  0
ARC
  5
104
  8
0
  6
CONTINUOUS
 62
     7
 10
36.551216125488281
 20
39.499706268310547
 30
0.0
 40
0.6999999880790718
 50
90.000002504478303
 51
180.00000500895661
  0
ARC
  5
105
  8
0
  6
CONTINUOUS
 62
     7
 10
36.551216125488281
 20
22.49970817565918
 30
0.0
 40
0.699999988079072
 50
179.99999134857791
 51
270.0000006832451
  0
ARC
  5
106
  8
0
  6
CONTINUOUS
 62
     7
 10
36.551216125488281
 20
23.09970664978027
 30
0.0
 40
0.6999999880790718
 50
90.000002504478303
 51
180.00000500895629
  0
ARC
  5
107
  8
0
  6
CONTINUOUS
 62
     7
 10
65.55120849609375
 20
38.899707794189453
 30
0.0
 40
0.6999999880790718
 50
269.99999749552171
 51
0.0000086514223564
  0
ARC
  5
108
  8
0
  6
CONTINUOUS
 62
     7
 10
65.55120849609375
 20
39.499706268310547
 30
0.0
 40
0.6999999880790737
 50
359.99999499104422
 51
89.999995674288542
  0
ARC
  5
109
  8
0
  6
CONTINUOUS
 62
     7
 10
65.55120849609375
 20
22.49970817565918
 30
0.0
 40
0.6999999880790718
 50
269.99999749552171
 51
0.0000086514220656
  0
ARC
  5
10A
  8
0
  6
CONTINUOUS
 62
     7
 10
65.55120849609375
 20
23.09970664978027
 30
0.0
 40
0.6999999880790737
 50
359.99999499104371
 51
89.999995674288542
  0
CIRCLE
  5
10B
  8
0
  6
CONTINUOUS
 62
     7
 10
46.051216125488281
 20
23.49970817565918
 30
0.0
 40
1.5
  0
CIRCLE
  5
10C
  8
0
  6
CONTINUOUS
 62
     7
 10
46.051216125488281
 20
23.49970817565918
 30
0.0
 40
1.25
  0
CIRCLE
  5
10D
  8
0
  6
CONTINUOUS
 62
     7
 10
31.051210403442379
 20
30.99970817565918
 30
0.0
 40
3.0
  0
CIRCLE
  5
10E
  8
0
  6
CONTINUOUS
 62
     7
 10
31.051210403442379
 20
30.99970817565918
 30
0.0
 40
1.75
  0
TEXT
  5
10F
  8
0
  6
CONTINUOUS
 62
     7
 10
-1.6000000238418579
 20
-21.799999952316281
 30
0.0
 40
3.5999999046325679
  1
RSR9ZM
 41
1.039215692767391
  0
ENDSEC
  0
EOF
